/* XPM */
static char *d34c23e9eff0483fd4860bed79a9a680pla9uMnfEkzl9JUy[] = {
/* columns rows colors chars-per-pixel */
"30 30 78 1 ",
"  c #64785F",
". c #7D586A",
"X c #7E4270",
"o c #7C6B6B",
"O c #717163",
"+ c #8A4A70",
"@ c #904E70",
"# c #905073",
"$ c #975370",
"% c #975777",
"& c #9A5977",
"* c #A35B70",
"= c #A75F72",
"- c #93616D",
"; c #9F767B",
": c #AD6575",
"> c #AA667B",
", c #AD6779",
"< c #B16A7B",
"1 c #B66E7A",
"2 c #BD757E",
"3 c #68815D",
"4 c #78955D",
"5 c #7F9E5D",
"6 c #85A25F",
"7 c #86A95D",
"8 c #89AD5C",
"9 c #92B45E",
"0 c #94B65F",
"q c #859169",
"w c #9BBB61",
"e c #B2CB69",
"r c #B9CF6D",
"t c #BCD174",
"y c #C0D470",
"u c #C3D677",
"i c #C3D678",
"p c #C6D87F",
"a c #CADA7E",
"s c #8A908B",
"d c #AA8282",
"f c #AF8498",
"g c #A8839C",
"h c #B88F9E",
"j c #A8A694",
"k c #A6B799",
"l c #B190A4",
"z c #B995A4",
"x c #B296AB",
"c c #C68087",
"v c #C4828A",
"b c #C88289",
"n c #D69597",
"m c #D99A9A",
"M c #C198A2",
"N c #D1B0B1",
"B c #A7C186",
"V c #C9DA87",
"C c #CFD19C",
"Z c #CED79C",
"A c #D4E18D",
"S c #D2E09C",
"D c #CAC7AB",
"F c #C5CFA8",
"G c #CBDBA6",
"H c #CFD1AB",
"J c #D3D3AB",
"K c #D5DAAB",
"L c #D0DEA8",
"P c #D4DFAA",
"I c #C0CEB2",
"U c #C5D4B1",
"Y c #D9E4AB",
"T c #D9CAC9",
"R c #DCCBC9",
"E c #DFCEC9",
"W c #CFD5C5",
"Q c #E3DDD8",
/* pixels */
"yyyyyyyyyyyyyyyyyyyyyyyyyyyyyy",
"yyyyyyyyyyyrryyyyyyyyyyyrrrryy",
"yyyyyyyyyyreryyyyyyyyyyyreeryy",
"yyyyyyyyyyeeyyyyyyyyyyyyyrryyy",
"yyyrryyyyyrryyyyyyyyyyyyyyyyyy",
"yyyreryyyyyyyyyyyyyyyyyyyyyyyy",
"yyyyeeyyyrryyyyyyyyyyyyyyyyyyy",
"yyyyrryyreryyyyyyyyyyyyyyyyyyy",
"yyyyyyyyeeyyyyVSSurrrryyyyyyyy",
"yyyyyyyyrryyyVGUIPteeryyyyyyyy",
"yyyyyyyyyyyypGB85kPtryyyyyyyyy",
"yyyyyyyyyyypLB9w63Wpyyyyyyyyyy",
"yyyyyyyyyypJj705OsFuyyyyyyyyyy",
"yyyyyyyyypCM;q4 .zKuyyyyyyyyyy",
"yyyyyyyyiCNvmdoo-$lZuyyyyyyyyy",
"yyyyyyyypE<mnc22:*XQpyyyyyyyyy",
"yyyyyyyypR>nb222:*XQpyyyyyyyyy",
"yyyyyyyypT&c2221=*XQpyyyyyaaaa",
"yyyyyyyyiJh,221=*@gKuyyyyyaAAa",
"yyyyyyaaypJf%%#++gHuyyyyyyyaay",
"yyyyyaAayypDxxxxxHpyyyyyyyyyyy",
"yyaayAAyyyyVYYYYYpyyyyyyyyyyyy",
"yyaAaAAyyyyyyyyyyyyyyyyyyyyyyy",
"yyyAAaayyaayyyyyyyyyyyyyyyyyyy",
"yyyAAyyyyaAayyyyyyyaaaayyyyyyy",
"yyyaayyyyyAAyyyyyyyaAAayyyyyyy",
"yyyyyyyyyyAAyyyyyyyyaayyyyyyyy",
"yyyyyyyyyyaayyyyyyyyyyyyyyyyyy",
"yyyyyyyyyyyyyyyyyyyyyyyyyyyyyy",
"yyyyyyyyyyyyyyyyyyyyyyyyyyyyyy"
};
