/* XPM */
static char *_86fbfb066b7441f8a250896693c262d33ZpF8AkYRQLz4TD[] = {
/* columns rows colors chars-per-pixel */
"30 30 29 1 ",
"  c #B06E75",
". c #B46D7A",
"X c #B69673",
"o c #B09970",
"O c #B79D73",
"+ c #B89975",
"@ c #B8A472",
"# c #B2CB69",
"$ c #B9CF6D",
"% c #BFCD70",
"& c #C0D470",
"* c #C6D27B",
"= c #C9D37F",
"- c #CADA7E",
"; c #C38485",
": c #C48088",
"> c #D49396",
", c #DA9B9B",
"< c #DA9D9C",
"1 c #C1A481",
"2 c #C2AB81",
"3 c #DFA6A2",
"4 c #E0A7A3",
"5 c #E1A8A4",
"6 c #E6B1AA",
"7 c #E7B4AB",
"8 c #E8B5AC",
"9 c #D0D98A",
"0 c #D4E18D",
/* pixels */
"&&&&&&&&&&&&&&&&&&&&&&&&&&&&&&",
"&&&&&&&&&&&$$&&&&&&&&&&&$$$$&&",
"&&&&&&&&&&$#$&&&&&&&&&&&$##$&&",
"&&&&&&&&&&##&&&&&&&&&&&&&$$&&&",
"&&&$$&&&&&$$&&&&&&&&&&&&&&&&&&",
"&&&$#$&&&&&&&&&&&&&&&&&&&&&&&&",
"&&&&##&&&$$&&&&&&&&&&&&&&&&&&&",
"&&&&$$&&$#$&&&&&&&&&&&&&&&&&&&",
"&&&&&&&&##&&&&&&&&$$$$&&&&&&&&",
"&&&&&@OOooOOOOOOOOooooOOO%&&&&",
"&&&&@;:::::::::::::::::::+%&&&",
"&&&@ >344,,3,,,,,,3,,344,.X%&&",
"&&&@ >657<,6<,,,,,6<,657<.X%&&",
"&&&@ >654,34,3444,34,347<.X%&&",
"&&&@ >34,37<378885,65,34,.X%&&",
"&&&@ >,,37857888885785,,,.X%&&",
"&&&@ >,,37857888885785,,,.X%&&",
"&&&@ >34,37<378885,65,34,.X*--",
"&&&@ >654,34,3444,34,347<.X90-",
"&&&@ >657<,6<,,,,,6<,657<.X=-&",
"&&&@ >344,,3,,,,,,3,,344,.X%&&",
"&&--@;:::::::::::::::::::+%&&&",
"&&-0-21OOOOOOOOOOOOOOOOOO%&&&&",
"&&&00--&&--&&&&&&&&&&&&&&&&&&&",
"&&&00&&&&-0-&&&&&&&----&&&&&&&",
"&&&--&&&&&00&&&&&&&-00-&&&&&&&",
"&&&&&&&&&&00&&&&&&&&--&&&&&&&&",
"&&&&&&&&&&--&&&&&&&&&&&&&&&&&&",
"&&&&&&&&&&&&&&&&&&&&&&&&&&&&&&",
"&&&&&&&&&&&&&&&&&&&&&&&&&&&&&&"
};
