/* XPM */
static char *_9f9d2a130c14a55e7765fe645bd902dcdP6hLQQXQ9xgdf2[] = {
/* columns rows colors chars-per-pixel */
"30 30 5 1 ",
"  c #B2CB69",
". c #B9CF6D",
"X c #C0D470",
"o c #CADA7E",
"O c #D4E18D",
/* pixels */
"XXXXXXXXXXXXXXXXXXXXXXXXXXXXXX",
"XXXXXXXXXXX..XXXXXXXXXXX....XX",
"XXXXXXXXXX. .XXXXXXXXXXX.  .XX",
"XXXXXXXXXX  XXXXXXXXXXXXX..XXX",
"XXX..XXXXX..XXXXXXXXXXXXXXXXXX",
"XXX. .XXXXXXXXXXXXXXXXXXXXXXXX",
"XXXX  XXX..XXXXXXXXXXXXXXXXXXX",
"XXXX..XX. .XXXXXXXXXXXXXXXXXXX",
"XXXXXXXX  XXXXXXXX....XXXXXXXX",
"XXXXXXXX..XXXXXXXX.  .XXXXXXXX",
"XXXXXXXXXXXXXXXXXXX..XXXXXXXXX",
"XXXXXXXXXXXXXXXXXXXXXXXXXXXXXX",
"XXXXXXXXXXXXXXXXXXXXXXXXXXXXXX",
"XXXXXXXXXXXXXXXXXXXXXXXXXXXXXX",
"XXXXXXXXXXXXXXXXXXXXXXXXXXXXXX",
"XXXXXXXXXXXXXXXXXXXXXXXXXXXXXX",
"XXXXXXXXXXXXXXXXXXXXXXXXXXXXXX",
"XXXXXXXXXXXXXXXXXXXXXXXXXXoooo",
"XXXXXXXXXXXXXXXXXXXXXXXXXXoOOo",
"XXXXXXooXXXXXXXXXXXXXXXXXXXooX",
"XXXXXoOoXXXXXXXXXXXXXXXXXXXXXX",
"XXooXOOXXXXXXXXXXXXXXXXXXXXXXX",
"XXoOoOOXXXXXXXXXXXXXXXXXXXXXXX",
"XXXOOooXXooXXXXXXXXXXXXXXXXXXX",
"XXXOOXXXXoOoXXXXXXXooooXXXXXXX",
"XXXooXXXXXOOXXXXXXXoOOoXXXXXXX",
"XXXXXXXXXXOOXXXXXXXXooXXXXXXXX",
"XXXXXXXXXXooXXXXXXXXXXXXXXXXXX",
"XXXXXXXXXXXXXXXXXXXXXXXXXXXXXX",
"XXXXXXXXXXXXXXXXXXXXXXXXXXXXXX"
};
