/* XPM */
static char *_dc3331dd90d4103a38dbe33f71cc65a5kx3gnZonhxsJoky[] = {
/* columns rows colors chars-per-pixel */
"30 30 94 2 ",
"   c #997761",
".  c #9F7366",
"X  c #9E756A",
"o  c #A77D6A",
"O  c #A2796E",
"+  c #9A8063",
"@  c #9F8563",
"#  c #9D8962",
"$  c #A28D64",
"%  c #AC836E",
"&  c #A38B6D",
"*  c #A89B66",
"=  c #A19268",
"-  c #AB926F",
";  c #AE956C",
":  c #A59E6A",
">  c #A89F6E",
",  c #B0936E",
"<  c #AD8673",
"1  c #A88275",
"2  c #AC8778",
"3  c #AF8B7C",
"4  c #B68D73",
"5  c #B1817A",
"6  c #B48A7F",
"7  c #B09571",
"8  c #B29779",
"9  c #BB967D",
"0  c #B4987B",
"q  c #AEA968",
"w  c #ABB16E",
"e  c #B1B06A",
"r  c #B7BE6C",
"t  c #AEA477",
"y  c #B6B77E",
"u  c #BBBF7A",
"i  c #C09878",
"p  c #C59E7C",
"a  c #B2CB69",
"s  c #B9CF6D",
"d  c #B2C373",
"f  c #B4C672",
"g  c #B6C872",
"h  c #B8C972",
"j  c #BACD71",
"k  c #BDD171",
"l  c #C1C57B",
"z  c #C0D470",
"x  c #C4D37E",
"c  c #C6D67D",
"v  c #CADA7E",
"b  c #AF8F87",
"n  c #BC8B84",
"m  c #BD9A85",
"M  c #BE9489",
"N  c #B49891",
"B  c #B8A080",
"V  c #BDBC88",
"C  c #C09A8B",
"Z  c #C9A686",
"A  c #CDA881",
"S  c #C6A58A",
"D  c #C1A38F",
"F  c #D2B08C",
"G  c #DCB98A",
"H  c #CEB39C",
"J  c #D5B693",
"K  c #D8BE9D",
"L  c #CCB5A3",
"P  c #D4BCA2",
"I  c #E3ADA6",
"U  c #E5AFA8",
"Y  c #E8B5AC",
"T  c #EABEB0",
"R  c #C2C187",
"E  c #C4CE8C",
"W  c #CEDA8D",
"Q  c #D0DD8C",
"!  c #E1C294",
"~  c #E3C69C",
"^  c #E5CA9F",
"/  c #D4E18D",
"(  c #D7C0A5",
")  c #DBC4A5",
"_  c #DBC9AF",
"`  c #E7CFA6",
"'  c #E0CCAF",
"]  c #EAD4AD",
"[  c #ECC7B5",
"{  c #EDCDB7",
"}  c #ECD8B0",
"|  c #EFD6BB",
" . c #EEDCB8",
".. c #F3E5C2",
/* pixels */
"z z z z z z z z z z z z z z z z z z z z z z z z z z z z z z ",
"z z z z z z z z z z z s s z z z z z z z z z z z s s s s z z ",
"z z z z z z z z z z s a s z z z z z z z z z z z s a a s z z ",
"z z z z z z z z z z a a z z z z z z z z z z z z z s s z z z ",
"z z z s s z z z z z s s z z z z z z z z z z z z z z z z z z ",
"z z z s a s z z z z z z z z z z z z z z z z z z z z z z z z ",
"z z z z a a z z z s s z z z z z e $ e z e $ e z z z z z z z ",
"z z z z s s z z s a s z z z z e B 3 * z * 3 B e z z z z z z ",
"z z z z z z z z a a z z e $ e * D D   $   D D * z e $ e z z ",
"z z z z z z z e # # $ $ B H B   9 F i i i K ' B $ B H B e z ",
"z z z z z e $ , i i S 3 D ..' H J G G G G ` ..' 3 D ..D * z ",
"z z z z e , i A G G ` D M [ | } ! G 9 9 ~  .L L D M [ M * z ",
"z z z z * 4 G G G ~  .' C 5 6 Z G G 1 b  ...N N ' C 5 7 r z ",
"z z z e   4 G ~ ]  .....' H H ) ] ] ( _ ...._ _ ..D @ r z z ",
"z z e , o m ]  .......} ^ } ..........| [ [ [ [ [ M * z z z ",
"z e , 4 . D ........} ! G ! } P P ..| T I I Y I I n * z z z ",
"z * . ; @ D ........ .~ G ~  .' D P { Y U U Y U U n * z z z ",
"z r q r * 9 ^ ^ ^ } .. .]  .....K 9 6 5 5 5 5 5 5 7 l v v v ",
"z z z e , A G G G ! ^ ^ ^ ^ ^ ^ ! A o @ q q q q q r v / / v ",
"z z e , A G p % % % % % % % % % p G A , q h j z z z z v v z ",
"z z * 4 G p - > + X 2 X + + X 2 < p G 4 = d f j z z z z z z ",
"z z u 8 % 0 y d w & O & w w & O & - % - w d d h z z z z z z ",
"z z c R t V E d d w : w d d w : w w : w d d g k z z z z z z ",
"z z z Q W x x j j c c j j j j j j j j j j j k z z z z z z z ",
"z z z / / z z z z v / v z z z z z z z v v v v z z z z z z z ",
"z z z v v z z z z z / / z z z z z z z v / / v z z z z z z z ",
"z z z z z z z z z z / / z z z z z z z z v v z z z z z z z z ",
"z z z z z z z z z z v v z z z z z z z z z z z z z z z z z z ",
"z z z z z z z z z z z z z z z z z z z z z z z z z z z z z z ",
"z z z z z z z z z z z z z z z z z z z z z z z z z z z z z z "
};
