/* XPM */
static char *_6dda7a0d9984148a0c2a1c52631d4edP06deFxKBQNbEJfZ[] = {
/* columns rows colors chars-per-pixel */
"30 30 26 1 ",
"  c #B2CB69",
". c #B9CF6D",
"X c #A9C27C",
"o c #B5CB76",
"O c #C0D470",
"+ c #CADA7E",
"@ c #6F949A",
"# c #7B9E94",
"$ c #70959A",
"% c #759B9F",
"& c #759C9F",
"* c #658CA1",
"= c #6A93A5",
"- c #82B2B9",
"; c #87B8BE",
": c #B1C787",
"> c #BCD080",
", c #BFD184",
"< c #C6D68F",
"1 c #D4E18D",
"2 c #8CBFC2",
"3 c #8DC1C2",
"4 c #90C4C2",
"5 c #97CEC2",
"6 c #99D1C2",
"7 c #9BD4C3",
/* pixels */
"OOOOOOOOOOOOOOOOOOOOOOOOOOOOOO",
"OOOOOOOOOOO..OOOOOOOOOOO....OO",
"OOOOOOOOOO. .OOOOOOOOOOO.  .OO",
"OOOOOOOOOO  OOOOOOOOOOOOO..OOO",
"OOO..OOOOO..OOOOOOOOOOOOOOOOOO",
"OOO. .OOOOOOOOOOOOOOOOOOOOOOOO",
"OOOO  OOO..OOOOOOOOOOOOOOOOOOO",
"OOOO..OO. .OOOOOOOOOOOOOOOOOOO",
"OOOOOOOO  OOOOOOOO....OOOOOOOO",
"OOOOO#$$@@$$$$$$$$@@@@$$$oOOOO",
"OOOO#-;;;;;;;;;;;;;;;;;;;%oOOO",
"OOO#*;5663253222225325663=$oOO",
"OOOo$;6463263222226326463=XOOO",
"OOO#*;6642542566633533573=$oOO",
"OOOo$;3325735777763663332=XOOO",
"OOO#*;2257767777776776322=$oOO",
"OOOo$;2236746777774674222=XOOO",
"OOO#*;5633633677742642563=$>++",
"OOOo$;6453353333325425463=:11+",
"OOO#*;6673263222226326673=$,+O",
"OOOo$;3332232222223223332=XOOO",
"OO++o&===================XOOOO",
"OO+1+<<ooooooooooooooooooOOOOO",
"OOO11++OO++OOOOOOOOOOOOOOOOOOO",
"OOO11OOOO+1+OOOOOOO++++OOOOOOO",
"OOO++OOOOO11OOOOOOO+11+OOOOOOO",
"OOOOOOOOOO11OOOOOOOO++OOOOOOOO",
"OOOOOOOOOO++OOOOOOOOOOOOOOOOOO",
"OOOOOOOOOOOOOOOOOOOOOOOOOOOOOO",
"OOOOOOOOOOOOOOOOOOOOOOOOOOOOOO"
};
