/* XPM */
static char *_4abc690574a409ff745e71dea4200faaOwB2JMH0FUmYxHd[] = {
/* columns rows colors chars-per-pixel */
"30 30 125 2 ",
"   c #617E7A",
".  c #94665E",
"X  c #97695E",
"o  c #9D765D",
"O  c #A0795D",
"+  c #AB7B5A",
"@  c #8E4E71",
"#  c #904F71",
"$  c #8D5973",
"%  c #8D5974",
"&  c #975474",
"*  c #915D76",
"=  c #8D6860",
"-  c #8F7363",
";  c #987263",
":  c #9B7561",
">  c #997166",
",  c #9A7B66",
"<  c #9E6472",
"1  c #A36874",
"2  c #A66B76",
"3  c #A86F79",
"4  c #B36B78",
"5  c #A4777A",
"6  c #AB727A",
"7  c #AC7179",
"8  c #AE747A",
"9  c #AB7F7D",
"0  c #B1767A",
"q  c #B1777D",
"w  c #BB737D",
"e  c #BD757E",
"r  c #B37A7F",
"t  c #B67C7F",
"y  c #63817A",
"u  c #66827B",
"i  c #6B8578",
"p  c #6D8978",
"a  c #6A8F7B",
"s  c #6D8A7E",
"d  c #748E75",
"f  c #758379",
"g  c #728D7A",
"h  c #758F7B",
"j  c #6C927B",
"k  c #6E967C",
"l  c #779076",
"z  c #76917D",
"x  c #739A7E",
"c  c #B3855F",
"v  c #B08260",
"b  c #B28461",
"n  c #B58761",
"m  c #B78B63",
"M  c #B78C68",
"N  c #BD936A",
"B  c #AE827F",
"V  c #B0837F",
"C  c #B3857F",
"Z  c #ADBB6F",
"A  c #B0B16F",
"S  c #AEB670",
"D  c #A7BE72",
"F  c #B6B971",
"G  c #B4BE72",
"H  c #B9BF7D",
"J  c #C09669",
"K  c #C2986B",
"L  c #C49A6C",
"P  c #C29F6D",
"I  c #B2CB69",
"U  c #B9CF6D",
"Y  c #B2C373",
"T  c #B3C572",
"R  c #B6C772",
"E  c #B3C971",
"W  c #B4C971",
"Q  c #BDCF7F",
"!  c #BED271",
"~  c #C4CC7C",
"^  c #C0D470",
"/  c #CADA7E",
"(  c #C47E85",
")  c #728C80",
"_  c #789F80",
"`  c #939F87",
"'  c #89AB88",
"]  c #92A787",
"[  c #90A888",
"{  c #95AD8A",
"}  c #98AF8A",
"|  c #8DB18A",
" . c #90B38B",
".. c #92B78C",
"X. c #9AB18B",
"o. c #9BB28C",
"O. c #97BB8E",
"+. c #9ABE8F",
"@. c #A5B28F",
"#. c #A7BF92",
"$. c #D59697",
"%. c #D59798",
"&. c #D9A29F",
"*. c #9DC191",
"=. c #B1C481",
"-. c #BDCB80",
";. c #A1C594",
":. c #AAC394",
">. c #AEC795",
",. c #A4C995",
"<. c #A8CD96",
"1. c #ABD198",
"2. c #ADD298",
"3. c #AED499",
"4. c #BDD095",
"5. c #B3D799",
"6. c #BDDB99",
"7. c #BDDD99",
"8. c #C4CE8C",
"9. c #C5D48B",
"0. c #C8D28C",
"q. c #D2DF8D",
"w. c #C0DF99",
"e. c #D4E18D",
"r. c #C2E09A",
/* pixels */
"^ ^ ^ ^ ^ ^ ^ ^ ^ ^ ^ l i i i i i i i i W ^ ^ ^ ^ ^ ^ ^ ^ ^ ",
"^ ^ ^ ^ ^ ^ ^ ^ ^ l i ' ;.,.,.,.,.,... .g W ^ ^ U U U U ^ ^ ",
"^ ^ ^ ^ ^ ^ ^ l i ' ;.1.3.7.w.w.5.7.6.2...g i W U I I U ^ ^ ",
"^ ^ ^ ^ ^ ^ l ' ;.1.3.3.3.w.r.r.5.w.r.5.1... .g W U U ^ ^ ^ ",
"^ ^ ^ U U l ' <.7.w.w.5.7.r.r.5.3.5.5.3.3.1.1...g W ^ ^ ^ ^ ",
"^ ^ ^ U d ' O.1.w.r.r.w.r.r.5.3.3.7.w.w.5.3.3.+. .g W ^ ^ ^ ",
"^ ^ ^ ^ i ;.1.3.5.5.w.r.5.5.3.3.3.w.C 0 4.V 2 } O.u W ^ ^ ^ ",
"^ ^ ^ l ' 1.3.3.3.3.5.5.3.3.3.3.3.V &.%.t w w * #...g W ^ ^ ",
"^ ^ ^ i  .1.3.3.3.3.3.3.3.3.3.3.3.2 $.( w e e # :.+.u W ^ ^ ",
"^ ^ ^ i  .+.9 8 >.B 2 o.1.3.3.3.3.>.6 w 4 e & ` +.O.u W ^ ^ ",
"^ ^ ^ i  .9 &.%.r w w * :.3.3.3.3.3.X.* @ # @.+.O.s D ^ ^ ^ ",
"^ ^ ^ i  .1 $.( w e e # o.+.+.1.3.*.<.:.:.X.+.O.O.u W ^ ^ ^ ",
"^ ^ ^ E g ] 3 w 4 e & ` O.O.O.+.+.O.+.+.+.O.O.O.O. .g W ^ ^ ",
"^ ^ ^ ^ i  .} * @ # ` O.O.O.O.O.O.O.O.O.O.O.O.O.O.O.u W ^ ^ ",
"^ ^ ^ l a ..O.{ { { O.O.O.O.O.O.O.O.O.O.O.O.O.O.O._   W ^ ^ ",
"^ ^ ^ i j x x .._ x ..O._ x x ..O.O.O.O._ x x x x k   W ^ ^ ",
"^ ^ ^ i j k k ..x k ..O.x k k 5 7 X.9 1 h k k k k k   W ^ ^ ",
"^ ^ ^ i j k k x k k x x | ..5 &.%.q w w $ [ ..x k y =./ / / ",
"^ ^ ^ E p j k | ....x k x x < $.( w e e # z x k k   Q e.e./ ",
"^ ^ ^ ^ i j k x x x k k k k h 1 w 4 e & f k k k k   W / / ^ ",
"^ ^ ^ ^ E p j k k k k k k k k h % @ # f k k k k y D ^ ^ ^ ^ ",
"^ ^ / / ^ 9.)   j k k k k k k k g g g k k y     D ^ ^ ^ ^ ^ ",
"^ ^ / e./ e.9.E p                         D E E ^ ^ ^ ^ ^ ^ ",
"^ ^ ^ e.e./ / ^ E Q Q - o O O O O O = Z E ^ ^ ^ ^ ^ ^ ^ ^ ^ ",
"^ ^ ^ e.e.^ ^ ^ ^ / e.; v + + + + c . ~ / / / ^ ^ ^ ^ ^ ^ ^ ",
"^ ^ ^ / / ^ ^ ^ ^ ^ 0.> b n n n n m . H q.e./ ^ ^ ^ ^ ^ ^ ^ ",
"^ ^ ^ ^ ^ ^ ^ ^ R R 8.> b J m J K K X S -.-.! ^ ^ ^ ^ ^ ^ ^ ",
"^ ^ ^ ^ ^ ^ ^ R Y Y , M K L K L L L N : S Y R ! ^ ^ ^ ^ ^ ^ ",
"^ ^ ^ ^ ^ ^ ^ T Y Y S P L L L L L L L A Y Y Y ! ^ ^ ^ ^ ^ ^ ",
"^ ^ ^ ^ ^ ^ ^ ! T Y Y G G G P L F G G Y Y Y ! ^ ^ ^ ^ ^ ^ ^ "
};
